<svg id="Layer_1" enable-background="new 0 0 256 256" viewBox="0 0 256 256" xmlns="http://www.w3.org/2000/svg"><g><g fill="#a58bc9"><path d="m78.629 136.05c-6.06 0-10.098-.475-10.526-.527-1.139-.14-2.037-1.038-2.177-2.177-.141-1.15-3.333-28.434 7.858-50.835.616-1.235 2.119-1.737 3.354-1.119 1.235.617 1.736 2.119 1.119 3.354-8.838 17.69-8.043 39.392-7.549 45.996 6.602.493 28.306 1.289 45.997-7.55 1.234-.618 2.736-.116 3.354 1.119.617 1.235.116 2.736-1.119 3.354-14.073 7.03-30.074 8.385-40.311 8.385z"/><path d="m101.138 113.416c-6.078 0-10.087-.476-10.412-.516-1.139-.14-2.036-1.038-2.176-2.176-.08-.653-1.92-16.181 1.876-33.473.296-1.349 1.632-2.201 2.978-1.906 1.349.296 2.202 1.629 1.906 2.978-2.842 12.943-2.332 25.135-1.979 29.796 4.654.353 16.819.862 29.74-1.967 1.349-.295 2.681.559 2.977 1.908.295 1.349-.559 2.682-1.908 2.977-8.664 1.897-16.882 2.379-23.002 2.379z"/><path d="m45.785 158.165c-.64 0-1.28-.244-1.768-.732-.977-.976-.977-2.559 0-3.535l79.643-79.642c.976-.977 2.56-.977 3.535 0 .977.976.977 2.559 0 3.535l-79.643 79.642c-.487.487-1.127.732-1.767.732z"/><path d="m60.548 217.454c-.375 0-.757-.085-1.115-.264-1.235-.617-1.736-2.119-1.119-3.354 5.617-11.243 5.396-24.957 5.078-30.032-5.076-.317-18.788-.54-30.032 5.078-1.235.616-2.737.116-3.354-1.119s-.116-2.736 1.119-3.354c15.387-7.688 34.096-5.499 34.886-5.401 1.139.14 2.036 1.038 2.176 2.176.097.789 2.286 19.5-5.401 34.886-.438.877-1.321 1.384-2.238 1.384z"/><path d="m49.144 221.409c-.178 0-.358-.019-.539-.059-1.349-.296-2.202-1.629-1.906-2.978 1.775-8.085 1.595-15.737 1.373-19.249-3.507-.222-11.141-.402-19.212 1.364-1.349.29-2.682-.56-2.977-1.908-.295-1.349.559-2.682 1.908-2.977 11.827-2.589 22.453-1.33 22.899-1.274 1.139.14 2.036 1.038 2.176 2.176.055.448 1.317 11.096-1.283 22.94-.256 1.169-1.291 1.965-2.439 1.965z"/><path d="m27.091 222.604c-.64 0-1.28-.244-1.768-.732-.977-.976-.977-2.559 0-3.535l53.935-53.935c.976-.977 2.56-.977 3.535 0 .977.976.977 2.559 0 3.535l-53.935 53.935c-.487.488-1.127.732-1.767.732z"/></g><path d="m177.421 197.795c-26.816 0-49.179-20.083-52.016-46.716-.146-1.373.848-2.604 2.221-2.75 1.371-.151 2.604.848 2.751 2.221 2.565 24.083 22.79 42.245 47.044 42.245s44.479-18.162 47.044-42.245c.146-1.374 1.384-2.366 2.751-2.221 1.373.146 2.367 1.378 2.222 2.75-2.838 26.633-25.201 46.716-52.017 46.716z" fill="#ebe7f2"/><g fill="#846f75"><path d="m127.909 75.717c-.14-1.139-1.038-2.036-2.177-2.176-1.708-.209-42.122-4.885-64.718 17.711-22.595 22.595-17.921 63.008-17.711 64.717.14 1.139 1.038 2.037 2.176 2.177.519.063 4.595.538 10.655.538 13.925 0 38.32-2.504 54.063-18.248 22.597-22.596 17.922-63.009 17.712-64.719zm-21.246 61.183c-18.15 18.15-50.282 17.08-58.578 16.462-.622-8.293-1.71-40.4 16.465-58.576 18.151-18.15 50.284-17.079 58.578-16.463.622 8.295 1.711 40.402-16.465 58.577z"/><path d="m81.331 163.688c-1.174-.145-28.919-3.353-44.497 12.225-15.577 15.577-12.368 43.323-12.224 44.497.14 1.139 1.038 2.037 2.177 2.177.354.043 3.137.367 7.28.367 9.558 0 26.35-1.725 37.216-12.592 15.577-15.577 12.368-43.323 12.224-44.497-.14-1.14-1.037-2.037-2.176-2.177zm-13.583 43.138c-11.598 11.598-31.91 11.363-38.344 10.962-.406-6.428-.657-26.718 10.965-38.341 11.599-11.598 31.914-11.36 38.344-10.962.406 6.428.657 26.718-10.965 38.341z"/><path d="m129.41 67.742c1.125.417 2.285.617 3.454.617 5.938 0 12.101-5.15 15.058-13.131h.001c3.538-9.552.952-19.021-5.889-21.556-3.441-1.275-7.31-.55-10.896 2.037-3.288 2.372-5.993 6.093-7.617 10.477-3.539 9.553-.953 19.021 5.889 21.556zm-1.2-19.818c1.283-3.464 3.362-6.362 5.854-8.16.979-.706 2.688-1.7 4.548-1.7.553 0 1.12.088 1.684.297 4.072 1.509 5.417 8.438 2.938 15.13-2.48 6.692-8.021 11.069-12.087 9.563-4.072-1.509-5.417-8.438-2.937-15.13z"/><path d="m105.557 67.542c.287.028.572.042.857.042 2.931 0 5.744-1.475 8-4.217 2.241-2.724 3.692-6.447 4.087-10.484s-.308-7.971-1.979-11.078c-1.845-3.431-4.644-5.495-7.881-5.812-3.236-.313-6.382 1.166-8.857 4.175-2.241 2.724-3.692 6.448-4.087 10.485s.308 7.971 1.979 11.077c1.845 3.431 4.644 5.495 7.881 5.812zm-4.883-16.403c.295-3.016 1.378-5.857 2.972-7.794.754-.917 2.263-2.393 4.155-2.393.117 0 .235.006.354.018 2.058.201 3.367 2.094 3.964 3.204 1.188 2.209 1.701 5.207 1.405 8.223-.295 3.016-1.378 5.856-2.972 7.794-.801.974-2.453 2.578-4.51 2.375-2.058-.201-3.367-2.093-3.964-3.204-1.187-2.21-1.7-5.207-1.404-8.223z"/><path d="m81.702 71.229h.056c5.776-.041 10.256-6.278 10.201-14.199-.025-3.596-1.011-7.003-2.776-9.595-1.932-2.837-4.688-4.459-7.57-4.459-.018 0-.036 0-.054 0-5.776.041-10.256 6.277-10.201 14.199.055 7.896 4.594 14.054 10.344 14.054zm-.108-23.253h.02c1.641 0 2.856 1.423 3.436 2.274 1.195 1.754 1.891 4.238 1.909 6.815.038 5.378-2.729 9.146-5.236 9.164-.006 0-.012 0-.018 0-2.503 0-5.31-3.724-5.347-9.09-.038-5.378 2.729-9.145 5.236-9.163z"/><path d="m62.356 79.981c.72 0 1.439-.108 2.146-.332 4.838-1.538 6.997-7.878 4.914-14.435-.939-2.954-2.625-5.511-4.748-7.201-2.376-1.892-5.146-2.528-7.597-1.75-4.838 1.538-6.997 7.878-4.914 14.435 1.78 5.599 5.993 9.283 10.199 9.283zm-3.771-18.952c.207-.066.416-.095.624-.095.939 0 1.84.589 2.346.992 1.335 1.062 2.463 2.812 3.095 4.802 1.297 4.083.165 7.575-1.662 8.156-1.827.583-4.768-1.617-6.065-5.7-1.298-4.082-.165-7.575 1.662-8.155z"/><path d="m42.004 93.677c1.562 1.119 3.266 1.696 4.908 1.696.802 0 1.589-.138 2.338-.418 4.477-1.677 6.215-7.713 3.958-13.742s-7.533-9.438-12.01-7.763c-4.477 1.676-6.216 7.712-3.959 13.742 1.013 2.707 2.705 5.01 4.765 6.485zm.947-15.544c.184-.069.384-.103.597-.103 1.584 0 3.831 1.873 4.978 4.936 1.301 3.474.529 6.723-1.029 7.306-.981.369-2.132-.339-2.581-.661-1.243-.891-2.335-2.412-2.994-4.173-1.301-3.473-.529-6.721 1.029-7.305z"/><path d="m177.421 103.834c-28.849 0-52.318 23.47-52.318 52.318 0 10.041 2.836 19.747 8.215 28.153l-7.002 19.624c-.325.91-.096 1.925.587 2.608s1.697.913 2.607.587l19.58-6.986c8.449 5.456 18.217 8.333 28.331 8.333 28.849 0 52.318-23.47 52.318-52.318s-23.469-52.319-52.318-52.319zm0 99.637c-9.536 0-18.729-2.827-26.587-8.174-.42-.286-.911-.433-1.406-.433-.283 0-.567.048-.84.146l-15.791 5.634 5.647-15.829c.268-.749.162-1.58-.282-2.238-5.272-7.818-8.06-16.955-8.06-26.423 0-26.091 21.227-47.318 47.318-47.318s47.318 21.227 47.318 47.318-21.225 47.317-47.317 47.317z"/></g><path d="m156.207 150.992c1.023-1.291 2.371-1.918 4.119-1.918 3.228 0 4.854 1.515 5.275 4.911.093.751.731 1.315 1.488 1.315h2.081c.424 0 .827-.179 1.111-.493s.423-.733.382-1.155c-.282-2.857-1.33-5.147-3.115-6.809-1.796-1.669-4.226-2.516-7.223-2.516-2.139 0-4.068.54-5.733 1.604-1.669 1.067-2.961 2.591-3.84 4.53-.847 1.867-1.275 4.018-1.275 6.393v3.18c.013 2.342.448 4.466 1.294 6.314.878 1.916 2.148 3.424 3.777 4.484 1.634 1.063 3.527 1.602 5.626 1.602 2.957 0 5.388-.813 7.223-2.418 1.846-1.613 2.943-3.926 3.265-6.874.046-.424-.09-.847-.375-1.164-.284-.317-.69-.499-1.116-.499h-2.081c-.757 0-1.395.563-1.488 1.314-.213 1.706-.741 2.968-1.572 3.752-.805.759-2.101 1.144-3.854 1.144-1.702 0-3.012-.631-4.002-1.929-1.071-1.404-1.614-3.37-1.614-5.842v-2.99c-.001-2.561.554-4.558 1.647-5.936z" fill="#a58bc9"/><path d="m189.866 145.919c-1.674-1.055-3.617-1.59-5.775-1.59-2.162 0-4.111.545-5.794 1.621-1.682 1.076-2.994 2.623-3.902 4.599-.876 1.907-1.32 4.108-1.32 6.542v2.518c0 3.82 1.009 6.931 2.998 9.244 2.046 2.378 4.755 3.584 8.052 3.584 2.172 0 4.125-.542 5.806-1.61 1.685-1.071 2.994-2.608 3.892-4.57.864-1.89 1.302-4.093 1.302-6.548v-2.943c-.036-2.385-.497-4.529-1.369-6.375-.907-1.912-2.216-3.416-3.89-4.472zm-5.743 21.721c-1.839 0-3.243-.646-4.296-1.974-1.121-1.416-1.689-3.421-1.689-5.958v-2.551c0-2.633.568-4.674 1.69-6.065 1.058-1.312 2.451-1.95 4.262-1.95 1.852 0 3.258.633 4.299 1.936 1.107 1.388 1.669 3.399 1.669 5.979v2.584c0 2.631-.554 4.671-1.646 6.066-1.017 1.301-2.42 1.933-4.289 1.933z" fill="#a58bc9"/><path d="m203.864 143.029h-2.578s.93-1.051.93-1.051c.984-1.113 1.959-2.323 2.382-3.772.407-1.392.201-2.961-.708-4.117-.13-.165-.273-.32-.427-.464-1.458-1.36-3.896-1.597-5.659-.736-1.703.831-2.729 2.536-2.729 4.419 0 .829.672 1.5 1.5 1.5h.919c.828 0 1.5-.671 1.5-1.5 0-.796.607-1.289 1.398-1.07.692.192.533.986.279 1.478-.132.255-.435.728-1.12 1.518l-3.854 4.371c-.242.274-.375.627-.375.992v.71c0 .829.672 1.5 1.5 1.5h7.043c.828 0 1.5-.671 1.5-1.5v-.78c-.001-.827-.673-1.498-1.501-1.498z" fill="#a58bc9"/></g></svg>