<?xml version="1.0" encoding="iso-8859-1"?>
<!-- Generator: Adobe Illustrator 19.0.0, SVG Export Plug-In . SVG Version: 6.00 Build 0)  -->
<svg version="1.1" id="Capa_1" xmlns="http://www.w3.org/2000/svg" xmlns:xlink="http://www.w3.org/1999/xlink" x="0px" y="0px"
	 viewBox="0 0 512.001 512.001" style="enable-background:new 0 0 512.001 512.001;" xml:space="preserve">
<g>
	<g>
		<path d="M399.7,428.641c-0.154-2.096-0.967-4.16-2.46-5.858c-1.791-2.039-4.228-3.175-6.737-3.37
			c-3.347-0.295-26.749-1.785-41.419,12.604c-1.126,1.105-2.149,2.27-3.093,3.471c-0.944-1.202-1.967-2.367-3.094-3.473
			c-14.642-14.362-37.986-12.904-41.345-12.609c-2.534,0.179-5,1.319-6.808,3.377c-1.469,1.673-2.28,3.7-2.452,5.762
			c-0.538,5.116-2.039,28.144,12.36,42.276c9.326,9.153,22.189,11.719,31.34,12.268v18.887c0,5.523,4.477,9.999,9.999,9.999
			s9.999-4.477,9.999-9.999v-18.887c9.152-0.549,22.015-3.115,31.34-12.267C401.638,456.781,400.247,433.955,399.7,428.641z
			 M318.661,456.549c-4.221-4.142-5.902-11.072-6.447-16.97c5.693,0.689,12.395,2.51,16.678,6.711
			c4.274,4.195,6.094,10.955,6.764,16.696C329.827,462.435,322.943,460.752,318.661,456.549z M373.322,456.549
			c-4.283,4.204-11.166,5.886-16.995,6.437c0.67-5.74,2.49-12.501,6.762-16.694c4.281-4.199,10.975-6.02,16.68-6.709
			C379.224,445.48,377.543,452.408,373.322,456.549z"/>
	</g>
</g>
<g>
	<g>
		<path d="M511.69,428.64c-0.155-2.096-0.968-4.16-2.46-5.858c-1.791-2.039-4.228-3.175-6.737-3.37
			c-3.347-0.295-26.749-1.785-41.419,12.604c-1.126,1.105-2.149,2.27-3.093,3.471c-0.944-1.202-1.967-2.367-3.094-3.473
			c-14.642-14.362-37.987-12.904-41.345-12.609c-2.534,0.179-5,1.319-6.808,3.377c-1.469,1.673-2.28,3.7-2.452,5.762
			c-0.538,5.116-2.039,28.144,12.36,42.276c9.326,9.153,22.189,11.719,31.34,12.268v18.887c0,5.523,4.477,9.999,9.999,9.999
			c5.523,0,9.999-4.477,9.999-9.999v-18.887c9.152-0.549,22.015-3.115,31.34-12.267C513.627,456.781,512.237,433.955,511.69,428.64z
			 M430.65,456.549c-4.221-4.142-5.902-11.072-6.447-16.97c5.693,0.689,12.395,2.51,16.678,6.711
			c4.274,4.195,6.094,10.955,6.764,16.696C441.816,462.435,434.932,460.752,430.65,456.549z M485.311,456.549
			c-4.283,4.204-11.166,5.886-16.995,6.437c0.67-5.74,2.49-12.501,6.762-16.694c4.281-4.199,10.975-6.02,16.68-6.709
			C491.213,445.48,489.532,452.408,485.311,456.549z"/>
	</g>
</g>
<g>
	<g>
		<polygon points="68.676,348.673 68.676,348.672 68.676,348.672 		"/>
	</g>
</g>
<g>
	<g>
		<path d="M163.723,306.485c-0.172-2.305-1.139-4.561-2.902-6.323c-1.761-1.761-4.015-2.727-6.316-2.9
			c-3.485-0.309-26.749-1.762-41.397,12.606c-1.126,1.105-2.149,2.27-3.093,3.471c-0.944-1.202-1.967-2.367-3.094-3.473
			c-14.52-14.242-37.51-12.937-41.3-12.613c-2.335,0.154-4.627,1.124-6.411,2.908c-1.747,1.747-2.711,3.979-2.896,6.261
			c-0.541,5.167-2.011,28.143,12.362,42.25c9.326,9.153,22.189,11.719,31.34,12.268v18.887c0,5.523,4.477,9.999,9.999,9.999
			c5.522,0,9.999-4.477,9.999-9.999V360.94c9.152-0.549,22.015-3.115,31.34-12.267C165.667,334.627,164.27,311.785,163.723,306.485z
			 M82.684,334.401c-4.22-4.142-5.901-11.07-6.447-16.969c5.693,0.689,12.397,2.51,16.678,6.709
			c4.274,4.195,6.094,10.955,6.764,16.696C93.85,340.286,86.966,338.603,82.684,334.401z M137.346,334.401
			c-4.283,4.204-11.166,5.886-16.995,6.437c0.669-5.742,2.489-12.502,6.762-16.695c4.282-4.2,10.982-6.02,16.68-6.71
			C143.248,323.331,141.566,330.26,137.346,334.401z"/>
	</g>
</g>
<g>
	<g>
		<polygon points="362.134,348.673 362.133,348.672 362.133,348.672 		"/>
	</g>
</g>
<g>
	<g>
		<path d="M457.18,306.484c-0.172-2.304-1.14-4.561-2.902-6.322c-1.761-1.761-4.015-2.727-6.316-2.9
			c-3.486-0.309-26.75-1.762-41.397,12.606c-1.126,1.105-2.149,2.27-3.093,3.471c-0.944-1.202-1.967-2.367-3.094-3.473
			c-14.508-14.231-37.473-12.939-41.291-12.613c-2.126,0.137-4.226,0.953-5.948,2.466c-2.029,1.783-3.165,4.207-3.367,6.705
			c-0.541,5.169-2.011,28.143,12.362,42.248c9.326,9.153,22.189,11.719,31.34,12.268v18.887c0,5.523,4.477,9.999,9.999,9.999
			s9.998-4.477,9.998-9.999V360.94c9.152-0.549,22.015-3.115,31.34-12.267C459.124,334.627,457.726,311.784,457.18,306.484z
			 M376.142,334.401c-4.22-4.142-5.901-11.07-6.447-16.969c5.694,0.689,12.397,2.51,16.678,6.709
			c4.274,4.195,6.094,10.955,6.764,16.696C387.308,340.286,380.424,338.603,376.142,334.401z M430.805,334.401
			c-4.283,4.204-11.166,5.886-16.995,6.437c0.669-5.742,2.488-12.502,6.761-16.695c4.282-4.2,10.982-6.02,16.68-6.71
			C436.705,323.331,435.023,330.26,430.805,334.401z"/>
	</g>
</g>
<g>
	<g>
		<path d="M107.728,428.641c-0.154-2.096-0.967-4.16-2.46-5.858c-1.791-2.039-4.228-3.175-6.737-3.37
			c-3.348-0.295-26.749-1.785-41.419,12.604c-1.126,1.105-2.149,2.27-3.093,3.471c-0.944-1.202-1.967-2.367-3.094-3.473
			c-14.642-14.362-37.987-12.904-41.345-12.609c-2.534,0.179-5.001,1.319-6.808,3.377c-1.469,1.673-2.28,3.7-2.452,5.762
			c-0.538,5.116-2.039,28.144,12.36,42.276c9.326,9.153,22.189,11.719,31.34,12.268v18.887c0,5.523,4.477,9.999,9.999,9.999
			s9.999-4.477,9.999-9.999v-18.887c9.152-0.549,22.015-3.115,31.34-12.267C109.666,456.781,108.275,433.955,107.728,428.641z
			 M26.689,456.549c-4.221-4.142-5.902-11.072-6.447-16.97c5.693,0.689,12.395,2.51,16.678,6.711
			c4.274,4.195,6.094,10.955,6.764,16.696C37.855,462.435,30.972,460.752,26.689,456.549z M81.351,456.549
			c-4.283,4.204-11.166,5.886-16.995,6.437c0.67-5.74,2.49-12.501,6.762-16.694c4.281-4.199,10.975-6.02,16.68-6.709
			C87.252,445.48,85.571,452.408,81.351,456.549z"/>
	</g>
</g>
<g>
	<g>
		<path d="M219.717,428.641c-0.154-2.096-0.967-4.16-2.46-5.858c-1.791-2.039-4.228-3.175-6.737-3.37
			c-3.347-0.295-26.749-1.785-41.419,12.604c-1.126,1.105-2.149,2.27-3.093,3.471c-0.944-1.202-1.967-2.367-3.094-3.473
			c-14.642-14.362-37.986-12.904-41.345-12.609c-2.534,0.179-5.001,1.319-6.808,3.377c-1.469,1.673-2.28,3.7-2.452,5.762
			c-0.538,5.116-2.039,28.144,12.36,42.276c9.326,9.153,22.189,11.719,31.34,12.268v18.887c0,5.523,4.477,9.999,9.999,9.999
			c5.522,0,9.999-4.477,9.999-9.999v-18.887c9.152-0.549,22.015-3.115,31.34-12.267
			C221.655,456.781,220.264,433.955,219.717,428.641z M138.678,456.549c-4.221-4.142-5.902-11.072-6.447-16.97
			c5.693,0.689,12.395,2.51,16.678,6.711c4.274,4.195,6.094,10.955,6.764,16.696C149.844,462.435,142.961,460.752,138.678,456.549z
			 M193.34,456.549c-4.283,4.204-11.166,5.886-16.995,6.437c0.67-5.74,2.49-12.501,6.762-16.694
			c4.281-4.199,10.975-6.02,16.68-6.709C199.241,445.48,197.561,452.408,193.34,456.549z"/>
	</g>
</g>
<g>
	<g>
		<path d="M347.567,64.241c-3.637-4.156-9.953-4.578-14.109-0.941c-9.4,8.224-18.275,17.213-26.378,26.718
			c-3.584,4.201-3.082,10.512,1.121,14.095c1.883,1.605,4.188,2.391,6.482,2.391c2.827,0,5.636-1.192,7.613-3.512
			c7.474-8.766,15.659-17.057,24.33-24.643C350.783,74.714,351.204,68.397,347.567,64.241z"/>
	</g>
</g>
<g>
	<g>
		<path d="M397.933,32.817c-2.538-4.904-8.57-6.823-13.476-4.286c-7.192,3.722-14.296,7.839-21.114,12.238
			c-4.641,2.995-5.974,9.183-2.981,13.824c1.912,2.963,5.127,4.579,8.411,4.579c1.857,0,3.736-0.517,5.412-1.598
			c6.285-4.056,12.833-7.851,19.461-11.281C398.552,43.755,400.471,37.722,397.933,32.817z"/>
	</g>
</g>
<g>
	<g>
		<path d="M442.999,16.929c-1.537-5.305-7.081-8.36-12.386-6.823c-4.807,1.392-9.637,2.948-14.356,4.625
			c-5.204,1.849-7.923,7.565-6.074,12.77c1.454,4.097,5.307,6.654,9.421,6.654c1.111,0,2.241-0.187,3.348-0.58
			c4.347-1.544,8.796-2.978,13.224-4.26C441.48,27.778,444.534,22.233,442.999,16.929z"/>
	</g>
</g>
<g>
	<g>
		<path d="M480.658,10.837c-0.636-5.485-5.601-9.416-11.084-8.781l-0.211,0.026c-2.321,0.295-4.665,0.626-6.964,0.983
			c-5.457,0.847-9.194,5.957-8.348,11.414c0.765,4.94,5.021,8.469,9.868,8.469c0.51,0,1.026-0.039,1.545-0.12
			c2.115-0.328,4.27-0.632,6.453-0.911C477.381,21.262,481.292,16.311,480.658,10.837z"/>
	</g>
</g>
<g>
	<g>
		<path d="M501.977,0.025h-0.146c-5.522,0-9.999,4.477-9.999,9.999s4.477,9.999,9.999,9.999h0.146c5.523,0,9.999-4.477,9.999-9.999
			S507.499,0.025,501.977,0.025z"/>
	</g>
</g>
<g>
	<g>
		<path d="M303.443,224.1c-4.083-3.718-10.407-3.421-14.125,0.662c-5.313,5.835-10.323,12.017-14.957,18.429
			c6.399-15.975,14.485-31.261,24.141-45.608c3.084-4.582,1.87-10.795-2.712-13.879c-4.583-3.083-10.795-1.868-13.879,2.712
			c-3.414,5.071-6.643,10.252-9.69,15.53c5.441-23.202,14.377-45.514,26.587-66.108c2.817-4.75,1.249-10.884-3.501-13.701
			c-4.75-2.817-10.883-1.25-13.701,3.501C270.55,144.289,261.97,164.233,256,184.951c-5.97-20.717-14.551-40.662-25.608-59.311
			c-2.817-4.751-8.95-6.318-13.701-3.501c-4.75,2.816-6.317,8.95-3.501,13.701c12.211,20.594,21.145,42.906,26.587,66.108
			c-3.047-5.279-6.276-10.46-9.69-15.53c-3.084-4.581-9.297-5.795-13.879-2.712c-4.582,3.084-5.795,9.297-2.712,13.879
			c9.656,14.347,17.742,29.631,24.141,45.608c-4.633-6.412-9.642-12.593-14.957-18.429c-3.718-4.083-10.041-4.38-14.125-0.662
			c-4.084,3.718-4.38,10.042-0.662,14.125c5.815,6.387,11.218,13.236,16.107,20.356v243.395c0,5.523,4.477,9.999,9.999,9.999h43.996
			c5.522,0,9.999-4.477,9.999-9.999V258.581c4.893-7.12,10.294-13.969,16.109-20.356C307.823,234.142,307.527,227.818,303.443,224.1
			z M268.002,491.977H268h-23.998V311.995h11.999c5.522,0,9.999-4.477,9.999-9.999c0-5.522-4.477-9.999-9.999-9.999h-11.999v-25.997
			h8.809c0.025,0,0.049,0.003,0.074,0.003c0.025,0,0.051-0.003,0.076-0.003h6.081c0.025,0,0.051,0.003,0.076,0.003
			s0.049-0.003,0.074-0.003h8.809V491.977z"/>
	</g>
</g>
<g>
	<g>
		<path d="M360.932,184.218c-2.551-4.898-8.589-6.798-13.488-4.247c-12.298,6.408-24.017,14.089-34.831,22.828
			c-4.295,3.472-4.963,9.767-1.492,14.062c1.977,2.445,4.867,3.715,7.783,3.715c2.207,0,4.429-0.728,6.278-2.223
			c9.782-7.905,20.38-14.853,31.502-20.647C361.582,195.154,363.483,189.116,360.932,184.218z"/>
	</g>
</g>
<g>
	<g>
		<path d="M416.495,168.05c-1.026-5.426-6.257-8.989-11.682-7.966c-7.224,1.366-14.456,3.138-21.493,5.264
			c-5.286,1.598-8.276,7.178-6.678,12.464c1.306,4.322,5.274,7.108,9.567,7.108c0.958,0,1.933-0.139,2.897-0.43
			c6.36-1.922,12.895-3.523,19.423-4.758C413.955,178.707,417.522,173.476,416.495,168.05z"/>
	</g>
</g>
<g>
	<g>
		<path d="M470.519,158.119c-8.774-1.117-17.737-1.683-26.639-1.683c-5.521,0-9.998,4.477-9.998,9.999s4.477,9.999,9.999,9.999
			c8.061,0,16.174,0.512,24.115,1.523c0.428,0.055,0.854,0.081,1.275,0.081c4.96,0,9.264-3.688,9.906-8.738
			C479.873,163.821,475.997,158.816,470.519,158.119z"/>
	</g>
</g>
<g>
	<g>
		<path d="M504.893,165.485l-0.871-0.264c-5.287-1.592-10.865,1.403-12.458,6.69c-1.593,5.289,1.403,10.866,6.69,12.459l0.8,0.242
			c0.973,0.297,1.956,0.438,2.923,0.438c4.283,0,8.245-2.773,9.56-7.082C513.149,172.686,510.174,167.098,504.893,165.485z"/>
	</g>
</g>
<g>
	<g>
		<path d="M367.09,117.474c-3.103-4.568-9.321-5.756-13.89-2.653c-13.838,9.4-26.86,20.175-38.704,32.025
			c-3.905,3.908-3.903,10.238,0.003,14.142c1.953,1.952,4.511,2.927,7.068,2.927c2.56,0,5.12-0.977,7.072-2.931
			c10.956-10.96,22.999-20.926,35.797-29.62C369.005,128.26,370.193,122.041,367.09,117.474z"/>
	</g>
</g>
<g>
	<g>
		<path d="M429.067,89.528c-1.782-5.227-7.464-8.018-12.692-6.236c-9.114,3.109-18.159,6.76-26.883,10.855
			c-5,2.346-7.149,8.301-4.803,13.3c1.702,3.626,5.301,5.753,9.059,5.753c1.422,0,2.869-0.305,4.242-0.95
			c8.062-3.784,16.42-7.158,24.843-10.031C428.057,100.437,430.849,94.754,429.067,89.528z"/>
	</g>
</g>
<g>
	<g>
		<path d="M483.883,79.599c-0.601-5.489-5.536-9.451-11.026-8.853c-6.256,0.684-12.559,1.602-18.733,2.728
			c-5.432,0.991-9.033,6.198-8.042,11.631c0.88,4.826,5.088,8.206,9.825,8.206c0.595,0,1.199-0.054,1.806-0.164
			c5.707-1.042,11.534-1.89,17.317-2.522C480.519,90.025,484.483,85.088,483.883,79.599z"/>
	</g>
</g>
<g>
	<g>
		<path d="M501.977,69.163h-0.156c-5.522,0-9.999,4.477-9.999,9.999s4.477,9.999,9.999,9.999h0.156c5.523,0,9.999-4.477,9.999-9.999
			S507.499,69.163,501.977,69.163z"/>
	</g>
</g>
<g>
	<g>
		<path d="M204.924,90.017c-8.104-9.505-16.978-18.494-26.378-26.718c-4.156-3.637-10.473-3.216-14.109,0.941
			c-3.638,4.157-3.217,10.474,0.94,14.11c8.669,7.585,16.854,15.876,24.33,24.643c1.978,2.32,4.786,3.512,7.613,3.512
			c2.294,0,4.601-0.785,6.482-2.391C208.005,100.529,208.506,94.218,204.924,90.017z"/>
	</g>
</g>
<g>
	<g>
		<path d="M148.658,40.768c-6.817-4.399-13.922-8.516-21.114-12.238c-4.904-2.537-10.937-0.619-13.476,4.286
			c-2.537,4.905-0.619,10.938,4.286,13.476c6.628,3.431,13.177,7.226,19.461,11.281c1.677,1.082,3.555,1.598,5.412,1.598
			c3.283,0,6.499-1.615,8.411-4.579C154.633,49.951,153.299,43.763,148.658,40.768z"/>
	</g>
</g>
<g>
	<g>
		<path d="M95.747,14.73c-4.719-1.677-9.549-3.233-14.356-4.625c-5.304-1.534-10.85,1.519-12.386,6.823
			c-1.537,5.305,1.518,10.849,6.822,12.386c4.428,1.282,8.877,2.715,13.224,4.26c1.107,0.394,2.236,0.58,3.348,0.58
			c4.113,0,7.966-2.558,9.422-6.654C103.67,22.296,100.95,16.579,95.747,14.73z"/>
	</g>
</g>
<g>
	<g>
		<path d="M49.603,3.068c-2.301-0.357-4.645-0.688-6.933-0.979l-0.243-0.03c-5.485-0.633-10.453,3.295-11.089,8.781
			c-0.635,5.483,3.292,10.446,8.777,11.082c2.141,0.272,4.302,0.578,6.422,0.907c0.52,0.081,1.036,0.12,1.545,0.12
			c4.846,0,9.103-3.53,9.869-8.467C58.798,9.024,55.06,3.915,49.603,3.068z"/>
	</g>
</g>
<g>
	<g>
		<path d="M10.171,0.025h-0.146c-5.522,0-9.999,4.477-9.999,9.999s4.477,9.999,9.999,9.999h0.146c5.522,0,9.999-4.477,9.999-9.999
			S15.693,0.025,10.171,0.025z"/>
	</g>
</g>
<g>
	<g>
		<path d="M199.388,202.799c-10.814-8.739-22.533-16.419-34.831-22.828c-4.896-2.554-10.937-0.651-13.488,4.247
			c-2.552,4.898-0.65,10.937,4.247,13.488c11.122,5.794,21.72,12.742,31.502,20.647c1.851,1.495,4.072,2.223,6.278,2.223
			c2.917,0,5.807-1.27,7.783-3.715C204.351,212.566,203.683,206.27,199.388,202.799z"/>
	</g>
</g>
<g>
	<g>
		<path d="M128.681,165.348c-7.037-2.127-14.269-3.899-21.493-5.264c-5.424-1.025-10.657,2.54-11.683,7.966
			c-1.026,5.427,2.541,10.657,7.967,11.683c6.528,1.235,13.063,2.836,19.423,4.758c0.965,0.292,1.938,0.43,2.897,0.43
			c4.293,0,8.261-2.788,9.567-7.108C136.957,172.525,133.967,166.945,128.681,165.348z"/>
	</g>
</g>
<g>
	<g>
		<path d="M68.12,156.436c-8.902,0-17.864,0.566-26.639,1.683c-5.477,0.697-9.353,5.703-8.656,11.181
			c0.643,5.051,4.947,8.738,9.906,8.738c0.421,0,0.847-0.026,1.275-0.081c7.94-1.011,16.054-1.523,24.115-1.523
			c5.522,0,9.999-4.477,9.999-9.999S73.643,156.436,68.12,156.436z"/>
	</g>
</g>
<g>
	<g>
		<path d="M20.438,171.914c-1.593-5.289-7.171-8.285-12.458-6.691l-0.871,0.264c-5.281,1.613-8.256,7.201-6.644,12.483
			c1.316,4.31,5.278,7.082,9.56,7.082c0.967,0,1.95-0.141,2.923-0.438l0.8-0.242C19.035,182.778,22.031,177.201,20.438,171.914z"/>
	</g>
</g>
<g>
	<g>
		<path d="M197.506,146.848c-11.844-11.85-24.867-22.625-38.704-32.025c-4.567-3.105-10.786-1.917-13.89,2.652
			c-3.104,4.568-1.916,10.787,2.653,13.89c12.798,8.694,24.842,18.66,35.797,29.62c1.953,1.954,4.513,2.931,7.072,2.931
			c2.558,0,5.117-0.976,7.068-2.927C201.408,157.085,201.41,150.754,197.506,146.848z"/>
	</g>
</g>
<g>
	<g>
		<path d="M122.511,94.146c-8.724-4.095-17.769-7.746-26.883-10.855c-5.225-1.781-10.909,1.01-12.692,6.236
			c-1.783,5.226,1.01,10.909,6.236,12.692c8.422,2.873,16.78,6.247,24.843,10.031c1.373,0.644,2.818,0.949,4.241,0.949
			c3.757,0,7.357-2.128,9.059-5.753C129.66,102.446,127.509,96.492,122.511,94.146z"/>
	</g>
</g>
<g>
	<g>
		<path d="M57.879,73.472c-6.174-1.126-12.478-2.044-18.733-2.728c-5.495-0.592-10.426,3.365-11.026,8.853
			c-0.601,5.49,3.363,10.427,8.852,11.027c5.783,0.632,11.61,1.48,17.317,2.522c0.607,0.11,1.21,0.164,1.806,0.164
			c4.737,0,8.945-3.381,9.826-8.207C66.912,79.671,63.312,74.463,57.879,73.472z"/>
	</g>
</g>
<g>
	<g>
		<path d="M10.181,69.163h-0.156c-5.522,0-9.999,4.477-9.999,9.999s4.477,9.999,9.999,9.999h0.156c5.522,0,9.999-4.477,9.999-9.999
			S15.703,69.163,10.181,69.163z"/>
	</g>
</g>
<g>
</g>
<g>
</g>
<g>
</g>
<g>
</g>
<g>
</g>
<g>
</g>
<g>
</g>
<g>
</g>
<g>
</g>
<g>
</g>
<g>
</g>
<g>
</g>
<g>
</g>
<g>
</g>
<g>
</g>
</svg>
